<svg width="128" height="128" viewBox="0 0 128 128" fill="none" xmlns="http://www.w3.org/2000/svg">
<g clip-path="url(#clip0_3_17)">
<path d="M13.355 48.4983C14.7752 48.4902 14.7752 48.4902 16.2241 48.4819C19.3554 48.4694 22.4859 48.486 25.6172 48.5039C27.7943 48.5038 29.9714 48.5023 32.1485 48.4995C36.7132 48.4981 41.2776 48.5107 45.8423 48.5335C51.6889 48.5618 57.535 48.5591 63.3816 48.5464C67.8787 48.5394 72.3756 48.5472 76.8727 48.5596C79.028 48.5642 81.1834 48.5645 83.3387 48.5606C86.3548 48.5577 89.3702 48.5742 92.3862 48.596C93.2748 48.5915 94.1633 48.587 95.0787 48.5823C100.094 48.6424 103.699 49.1205 108 52C108.875 54.6875 108.875 54.6875 109 57C110.031 57.0825 111.063 57.165 112.125 57.25C116.359 58.0695 118.557 59.4754 122 62C122.743 62.3094 123.485 62.6188 124.25 62.9375C126.857 64.5206 127.109 66.092 128 69C128.19 71.8343 128.303 74.4204 128.273 77.25C128.281 77.9796 128.265 78.8342 128.273 79.586C128.256 84.411 127.645 88.4511 126 93C124.188 94.1875 123.688 98.1875 121.5 99C119.813 100.307 121.646 98.6417 120 100C119.237 100.557 123.286 97.4262 122.5 98C123.137 99.3125 116.574 102.054 116 102.5C116 102.83 114 103 113 103C111.02 103 109.04 103 107 103C106.897 103.722 106.794 104.444 106.688 105.188C105.932 108.277 104.809 110.396 103 113C102.01 113.495 102.01 113.495 101 114C100.505 115.485 100.505 115.485 100 117C98.6944 117.72 97.3543 118.377 96 119C93.5125 120.74 91.0734 122.538 88.6328 124.344C82.0599 128.479 75.5979 128.349 68.0586 128.406C66.8993 128.418 65.7401 128.429 64.5457 128.441C62.0939 128.46 59.6421 128.473 57.1902 128.48C53.4742 128.5 49.7604 128.562 46.0449 128.625C23.3953 128.825 23.3953 128.825 13 122C12.271 121.636 11.5419 121.272 10.7908 120.897C7.43844 119.218 6.18105 117.543 5.00002 114C4.50502 113.567 4.01002 113.134 3.50002 112.688C1.38716 110.311 1.38806 108.104 1.00002 105C0.505015 103.515 0.505015 103.515 1.52588e-05 102C-0.106585 100.411 -0.158579 98.8176 -0.176987 97.2249C-0.189822 96.257 -0.202657 95.2891 -0.215881 94.2919C-0.223268 93.2481 -0.230655 92.2043 -0.238266 91.1289C-0.246338 90.0551 -0.254409 88.9812 -0.262726 87.8748C-0.276558 85.6027 -0.287284 83.3305 -0.295151 81.0584C-0.3124 77.5795 -0.356299 74.1017 -0.400375 70.6231C-0.410499 68.4167 -0.419016 66.2103 -0.425766 64.0039C-0.443274 62.9622 -0.460782 61.9204 -0.478821 60.8471C-0.475895 59.8761 -0.47297 58.905 -0.469955 57.9046C-0.475822 57.052 -0.481688 56.1995 -0.487732 55.3211C1.07226 47.8975 7.1289 48.4309 13.355 48.4983ZM107 72C107 76.62 107 81.24 107 86C107.33 86 106.66 85.899 107 85.899C107 81.279 107 76.76 107 72C107.34 72 106.67 72 107 72ZM109 72C109 76.62 109 81.24 109 86C110.32 86.33 111.64 85.66 113 86C115.192 83.6331 115.987 83.4828 116.074 80.2031C115.947 79.2286 115.819 78.2541 115.688 77.25C115.568 76.2652 115.448 75.2803 115.324 74.2656C115.217 73.518 114.61 72.7703 114.5 72C111.5 70.6667 112 70.6667 109 72ZM116 77C116.33 78.32 117.192 76.406 117.532 77.766C117.862 76.776 117.16 79.02 117.5 78C116.84 77.67 116 78 116 77ZM105 103C106 105 106 105 106 105L105 103ZM104 106C105 108 105 108 105 108L104 106Z" fill="#EC9F48"/>
<path d="M9.99998 69C12.875 68.9724 15.7498 68.9529 18.625 68.9375C19.8083 68.9249 19.8083 68.9249 21.0156 68.9121C35.5393 68.8545 49.5005 70.9234 63.7539 73.416C74.5208 75.2874 85.0713 76.5649 96 77C96.1171 80.9998 96.1875 84.9991 96.25 89C96.2835 90.1254 96.317 91.2507 96.3515 92.4102C96.4469 100.563 95.4614 106.05 90.0351 112.242C81.4646 119.336 73.5954 120.141 62.6992 120.238C61.8228 120.246 60.9464 120.254 60.0434 120.263C58.197 120.277 56.3506 120.287 54.5041 120.295C52.6317 120.307 50.7592 120.327 48.8869 120.357C28.713 120.674 28.713 120.674 21 116C20.3436 115.604 19.6872 115.208 19.011 114.8C13.4794 110.804 11.562 105.484 9.99998 99C9.55074 93.7613 9.61679 88.5628 9.74998 83.3125C9.7701 81.9174 9.78834 80.5222 9.80467 79.127C9.8514 75.7506 9.91691 72.3757 9.99998 69Z" fill="#72462C"/>
<path d="M8.69547 49.0012C10.2381 49.0016 10.2381 49.0016 11.8118 49.0021C12.9149 49.0227 14.018 49.0434 15.1546 49.0647C16.2893 49.0703 17.4241 49.076 18.5932 49.0818C22.2172 49.1042 25.8402 49.1544 29.4639 49.2053C31.9209 49.2254 34.378 49.2436 36.835 49.26C42.8583 49.3007 48.8794 49.379 54.9028 49.4553C54.9028 57.0463 54.9028 64.6373 54.9028 72.4583C50.0354 72.4583 47.2341 72.3784 42.813 71.4582C40.222 71.2457 37.6431 71.0657 35.0483 70.9229C34.3175 70.8799 33.5867 70.837 32.8337 70.7927C30.5143 70.657 28.1945 70.5262 25.8748 70.3955C24.296 70.304 22.7172 70.2122 21.1384 70.1201C17.2812 69.8957 13.4238 69.6756 9.56619 69.4579C9.61123 73.5301 9.68215 77.6011 9.77526 81.6726C9.80339 83.0525 9.82491 84.4326 9.83921 85.8128C9.94852 95.7708 10.2777 105.658 17.2482 113.401C27.9916 119.918 37.7187 120.115 49.9913 120.214C51.7413 120.243 53.4913 120.273 55.2412 120.304C59.4941 120.378 63.7466 120.427 68 120.464C68 120.794 68 121.124 68 121.465C63.6779 121.465 59.3558 121.465 54.9028 121.465C54.9028 123.775 54.9028 126.085 54.9028 128.465C50.982 128.616 47.0625 128.724 43.1394 128.795C41.1666 128.839 39.1945 128.916 37.2227 128.993C27.614 129.138 20.952 127.067 12.5886 122.465C11.4633 121.918 11.4633 121.918 10.3152 121.361C6.97512 119.656 5.71275 117.99 4.52879 114.464C4.03009 114.03 3.53139 113.597 3.01757 113.151C0.888912 110.774 0.889822 108.567 0.498875 105.462C0.000172347 103.977 0.000172347 103.977 -0.508605 102.462C-0.616003 100.873 -0.668385 99.2793 -0.686931 97.6863C-0.699862 96.7183 -0.712793 95.7503 -0.726116 94.753C-0.733558 93.7091 -0.741 92.6652 -0.748668 91.5896C-0.7568 90.5156 -0.764932 89.4416 -0.773311 88.335C-0.787247 86.0626 -0.798053 83.7902 -0.805978 81.5178C-0.823357 78.0385 -0.867584 74.5602 -0.91199 71.0812C-0.92219 68.8745 -0.93077 66.6678 -0.937571 64.4612C-0.95521 63.4193 -0.972849 62.3774 -0.991022 61.3039C-0.988075 60.3328 -0.985127 59.3616 -0.982091 58.361C-0.988001 57.5084 -0.993911 56.6557 -1 55.7772C0.12336 50.4704 3.6071 48.9512 8.69547 49.0012Z" fill="#ED9531"/>
<path d="M55 73C67.0622 74.0966 67.0622 74.0966 72.6875 75C80.4384 76.1527 88.1811 76.6141 96 77C96.1171 80.9997 96.1876 84.9991 96.25 89C96.3003 90.688 96.3003 90.688 96.3516 92.4102C96.4469 100.563 95.4614 106.05 90.0352 112.242C78.9922 121.383 70.0397 120 55 120C55 104.49 55 88.98 55 73Z" fill="#72462C"/>
<path d="M80.0625 0C81.5166 0.0309375 81.5166 0.0309375 83 0.0625C83.1328 0.905547 83.2655 1.74859 83.4023 2.61719C83.5789 3.71289 83.7555 4.80859 83.9375 5.9375C84.1115 7.02805 84.2855 8.11859 84.4648 9.24219C84.8555 12.0007 84.8555 12.0007 86 14.0625C86.66 14.3925 87.32 14.7225 88 15.0625C88 16.7125 88 18.3625 88 20.0625C88.66 20.0625 89.32 20.0625 90 20.0625C90.9202 22.823 91.1927 24.6961 91.25 27.5625C91.2758 28.3359 91.3016 29.1094 91.3281 29.9062C90.8063 33.3353 88.8083 34.4622 86.1328 36.4492C85.4702 36.8785 84.8077 37.3077 84.125 37.75C83.4676 38.187 82.8102 38.624 82.1328 39.0742C79.6065 40.2448 77.7529 40.2399 75 40.0625C75.1186 39.4566 75.2372 38.8508 75.3594 38.2266C76.1116 33.3374 76.2624 29.9583 74.125 25.4375C70.9704 18.6497 71.1826 11.4216 71 4.0625C71.8044 3.58812 72.6087 3.11375 73.4375 2.625C77.6622 0.0489864 77.6622 0.0489865 80.0625 0ZM89 23.0625C89 25.7025 89 28.3425 89 31.0625C89.33 31.0625 88.66 30.8088 89 30.8088C89 28.1688 89 25.7825 89 23.0625C89.34 23.0625 88.67 23.0625 89 23.0625ZM78 30.0625C79 33.0625 79 33.0625 79 33.0625L78 30.0625ZM77 35.0625C78 37.0625 78 37.0625 78 37.0625L77 35.0625Z" fill="#995D3D"/>
<path d="M28 0C28 3.3 28 6.6 28 10C28.99 10.33 29.98 10.66 31 11C31.7305 12.8477 31.7305 12.8477 32.1875 15.0625C32.3461 15.796 32.5046 16.5295 32.668 17.2852C32.7776 17.8511 32.8871 18.417 33 19C33.66 19 33.82 19.5 34.5 19.5C34.581 21.9382 35.1405 23.8736 35.1875 26.3125C35.2127 27.0028 35.2378 27.6931 35.2637 28.4043C35.3377 33.5103 35.3377 33.5103 33.7071 35.875C30.0387 38.2926 26.411 40 22 40C21.0645 37.1934 21.0364 35.2731 21.1875 32.25C21.259 28.6834 20.9251 27.8713 19 24.5625C15.368 18.2321 16.712 10.0407 17 3C21.2024 0.654472 23.0111 0 28 0ZM18 18C19 20 19 20 19 20L18 18ZM23 29C23 30.65 23 32.3 23 34C22.66 34 23.33 34 23 34C23 32.35 23 30.7 23 29C23.34 29 22.67 29 23 29Z" fill="#9A5F40"/>
<path d="M50.6875 -0.25C51.7806 -0.1675 52.8737 -0.085 54 0C54 1.98 55.5 -0.04 55.5 2C56.16 2 55.32 6 56 6C62.359 15.8225 62.7274 23.6307 62 35C60.4247 35.8688 58.8393 36.7196 57.25 37.5625C56.3683 38.0382 55.4865 38.5138 54.5781 39.0039C51.793 40.08 50.7302 40.0653 48 39C48.75 34.25 48.75 34.25 51 32C50.34 32 49.68 32 49 32C49.0825 31.01 49.165 30.02 49.25 29C49.266 25.028 47.8953 22.4771 46.0273 19.0469C43.9841 14.976 42.8748 10.8355 43.1875 6.25C44.8417 1.66908 45.5699 0.0969514 50.6875 -0.25ZM44 6C45 9 45 9 45 9L44 6ZM60 18C61 20 61 20 61 20L60 18Z" fill="#995F3F"/>
<path d="M4 50C20.83 50 37.66 50 55 50C55 50.495 55 50.99 55 51.5C54.3803 51.5077 53.7605 51.5155 53.122 51.5234C46.6821 51.6044 40.2422 51.6904 33.8025 51.7792C31.3979 51.8118 28.9933 51.843 26.5886 51.873C23.1358 51.9162 19.6832 51.964 16.2305 52.0127C15.1523 52.0252 14.0741 52.0378 12.9632 52.0507C11.9624 52.0656 10.9616 52.0806 9.93042 52.096C8.60805 52.1135 8.60805 52.1135 7.25896 52.1313C4.83229 52.1881 4.83229 52.1881 2 53C2.66 52.01 3.32 51.02 4 50Z" fill="#ED9531"/>
<path d="M54 1C54.33 1 54.66 1 55 1C55 2.65 55 4.3 55 6C54.67 6 54.34 6 54 6C54 4.35 54 2.7 54 1Z" fill="#995F3F"/>
<path d="M110 55C114 56 114 56 114 56L110 55Z" fill="#9DDAEA"/>
<path d="M35 22C36 26 36 26 36 26L35 22Z" fill="#846F5D"/>
<path d="M43 13C44 17 44 17 44 17L43 13Z" fill="#705543"/>
<path d="M42 9C43 13 43 13 43 13L42 9Z" fill="#7F0000"/>
<path d="M83 127C86 128 86 128 86 128L83 127Z" fill="#7BFFFF"/>
<path d="M77 41C80 42 80 42 80 42L77 41Z" fill="#555555"/>
<path d="M22 41C25 42 25 42 25 42L22 41Z" fill="#EA1C1C"/>
<path d="M52 40C55 41 55 41 55 41L52 40Z" fill="#DA6914"/>
<path d="M25 40C28 41 28 41 28 41L25 40Z" fill="#813838"/>
<path d="M21 127C23 128 23 128 23 128L21 127Z" fill="#DFDFFF"/>
<path d="M86 126C88 127 88 127 88 127L86 126Z" fill="#3AFFFF"/>
<path d="M19 126C21 127 21 127 21 127L19 126Z" fill="#7FFFFF"/>
<path d="M17 125C19 126 19 126 19 126L17 125Z" fill="#7FFFFF"/>
<path d="M89 124C91 125 91 125 91 125L89 124Z" fill="#00FFFF"/>
<path d="M15 124C17 125 17 125 17 125L15 124Z" fill="#3AFFFF"/>
<path d="M92 122C94 123 94 123 94 123L92 122Z" fill="#D5D5D5"/>
<path d="M113 101C115 102 115 102 115 102L113 101Z" fill="#80B6B6"/>
<path d="M115 100C117 101 117 101 117 101L115 100Z" fill="#3AFFFF"/>
<path d="M117 99C119 100 119 100 119 100L117 99Z" fill="#7FFFFF"/>
<path d="M111 85C113 86 113 86 113 86L111 85Z" fill="#BFE6E6"/>
<path d="M112 72C114 73 114 73 114 73L112 72Z" fill="#BFE6FF"/>
<path d="M118 58C120 59 120 59 120 59L118 58Z" fill="#3AFFFF"/>
<path d="M116 57C118 58 118 58 118 58L116 57Z" fill="white"/>
<path d="M114 56C116 57 116 57 116 57L114 56Z" fill="#ACACD5"/>
<path d="M102 48C104 49 104 49 104 49L102 48Z" fill="white"/>
<path d="M50 41C52 42 52 42 52 42L50 41Z" fill="#A16A2A"/>
<path d="M80 40C82 41 82 41 82 41L80 40Z" fill="#885E5E"/>
<path d="M82 39C84 40 84 40 84 40L82 39Z" fill="#808040"/>
<path d="M55 39C57 40 57 40 57 40L55 39Z" fill="#612A2A"/>
<path d="M29 38C31 39 31 39 31 39L29 38Z" fill="#612A2A"/>
</g>
<defs>
<clipPath id="clip0_3_17">
<rect width="128" height="128" fill="white"/>
</clipPath>
</defs>
</svg>
